<?xml version="1.0" standalone="no"?>
<!DOCTYPE svg PUBLIC "-//W3C//DTD SVG 20010904//EN"
 "http://www.w3.org/TR/2001/REC-SVG-20010904/DTD/svg10.dtd">
<svg version="1.0" xmlns="http://www.w3.org/2000/svg"
 width="4096.000000pt" height="2336.000000pt" viewBox="0 0 4096.000000 2336.000000"
 preserveAspectRatio="xMidYMid meet">

<g transform="translate(0.000000,2336.000000) scale(0.100000,-0.100000)"
fill="#000000" stroke="none">
<path d="M0 11680 l0 -11680 20480 0 20480 0 0 11680 0 11680 -20480 0 -20480
0 0 -11680z m22780 10042 c26 -21 21 -55 -9 -72 -42 -22 -85 55 -43 79 23 14
27 14 52 -7z m15125 -1767 c0 -37 -28 -46 -45 -15 -9 16 -8 25 1 36 20 24 44
13 44 -21z m-34142 -515 c7 -26 -14 -53 -35 -45 -19 8 -33 40 -23 55 11 18 52
11 58 -10z m15561 -1315 c27 -28 -10 -69 -40 -44 -17 14 -18 31 -2 47 16 16
23 15 42 -3z m19874 -459 c3 -13 -1 -17 -14 -14 -11 2 -20 11 -22 22 -3 13 1
17 14 14 11 -2 20 -11 22 -22z m-35598 -1165 c14 -27 2 -53 -23 -49 -25 4 -42
30 -34 52 9 22 44 20 57 -3z m-2388 -717 c10 -21 9 -27 -3 -35 -32 -20 -66 5
-54 41 9 28 43 25 57 -6z m3523 -649 c0 -24 -16 -29 -38 -12 -11 7 -16 19 -12
29 9 22 50 8 50 -17z m32073 -43 c3 -16 -2 -22 -16 -22 -21 0 -36 25 -26 41
10 17 39 5 42 -19z m-29568 -267 c17 -20 8 -50 -14 -50 -27 0 -43 29 -27 49
17 20 25 20 41 1z m30710 -124 c0 -17 -18 -21 -24 -6 -3 9 0 15 9 15 8 0 15
-4 15 -9z m-1755 -302 c8 -25 -6 -42 -28 -34 -18 7 -30 32 -21 46 10 17 43 9
49 -12z m-31805 -133 c0 -3 -4 -8 -10 -11 -5 -3 -10 -1 -10 4 0 6 5 11 10 11
6 0 10 -2 10 -4z m5000 -337 c0 -6 -4 -7 -10 -4 -5 3 -10 11 -10 16 0 6 5 7
10 4 6 -3 10 -11 10 -16z m-5625 -39 c3 -5 4 -14 0 -20 -8 -13 -35 -1 -35 16
0 16 26 19 35 4z m33311 -941 c9 -16 -20 -41 -39 -33 -27 10 -21 44 7 44 14 0
28 -5 32 -11z m-6521 -9 c10 -16 -14 -50 -36 -50 -22 0 -34 22 -25 45 6 17 51
21 61 5z m6583 -867 c2 -13 -1 -23 -6 -23 -24 0 -42 14 -42 32 0 29 44 20 48
-9z m-1440 -361 c3 -18 -2 -22 -22 -22 -19 0 -26 5 -26 19 0 36 43 38 48 3z
m-5653 -427 c0 -23 -4 -30 -20 -30 -20 0 -48 42 -38 58 2 4 17 7 31 5 23 -2
27 -8 27 -33z m-875 -250 c0 -33 -18 -41 -42 -17 -17 16 -18 23 -9 41 10 17
15 19 31 11 12 -6 20 -21 20 -35z m4523 -279 c3 -8 -1 -22 -9 -33 -13 -17 -15
-17 -34 6 -11 12 -17 27 -14 32 8 14 51 10 57 -5z m2111 -95 c20 -22 14 -56
-11 -65 -34 -13 -59 44 -31 72 16 16 22 15 42 -7z m-1570 -263 c3 -13 2 -26
-3 -31 -11 -11 -34 20 -27 38 8 22 23 18 30 -7z m-2044 -73 c15 -19 -3 -45
-31 -45 -19 0 -35 33 -24 50 9 15 41 12 55 -5z m-15779 -565 c21 -12 25 -35 9
-45 -6 -4 -22 1 -36 10 -20 13 -23 19 -13 31 14 17 15 17 40 4z m8749 -99 c0
-30 -25 -45 -44 -26 -27 27 -18 45 21 45 16 0 23 -6 23 -19z m7974 -451 c30
-11 35 -49 10 -74 -20 -21 -43 -20 -66 1 -22 20 -23 32 -2 61 17 25 22 26 58
12z m-13154 -450 c0 -5 -2 -10 -4 -10 -3 0 -8 5 -11 10 -3 6 -1 10 4 10 6 0
11 -4 11 -10z m-19740 -196 c0 -20 -30 -30 -40 -13 -11 17 7 40 26 32 8 -3 14
-12 14 -19z m13844 -163 c3 -5 0 -13 -7 -19 -15 -13 -42 1 -33 17 9 13 33 15
40 2z m12116 -4796 c0 -34 -27 -43 -52 -17 -25 25 -16 42 23 42 24 0 29 -4 29
-25z m-2918 -621 c10 -9 -3 -44 -16 -44 -18 0 -35 21 -29 36 5 14 34 19 45 8z
m8318 -245 c0 -25 -33 -22 -38 4 -2 12 3 17 17 17 15 0 21 -6 21 -21z m-10340
-184 c0 -27 -6 -30 -29 -16 -12 8 -12 12 -2 25 19 23 31 20 31 -9z m-14891
-564 c23 -20 32 -36 29 -53 -7 -51 -99 -21 -110 36 -10 52 32 60 81 17z
m17336 -691 c0 -23 -49 -20 -53 3 -3 15 2 18 25 15 17 -2 28 -9 28 -18z"/>
</g>
</svg>
